<svg xmlns="http://www.w3.org/2000/svg" enable-background="new 0 0 32 32" viewBox="0 0 32 32" id="service-mark">
  <circle cx="16" cy="16" r="14.5" fill="#54bbe8"></circle>
  <path d="M16,1C7.7,1,1,7.7,1,16s6.7,15,15,15s15-6.7,15-15C31,7.7,24.3,1,16,1z M16,30C8.3,30,2,23.7,2,16S8.3,2,16,2s14,6.3,14,14
		C30,23.7,23.7,30,16,30z M9.5,11h5c0.3,0,0.5-0.2,0.5-0.5S14.8,10,14.5,10h-5C8.1,10,7,11.1,7,12.5V14c0,1.4,1.1,2.5,2.5,2.5h3
		c0.8,0,1.5,0.7,1.5,1.5v1.5c0,0.8-0.7,1.5-1.5,1.5h-5C7.2,21,7,21.2,7,21.5S7.2,22,7.5,22h5c1.4,0,2.5-1.1,2.5-2.5V18
		c0-1.4-1.1-2.5-2.5-2.5h-3C8.7,15.5,8,14.8,8,14v-1.5C8,11.7,8.7,11,9.5,11z M25.7,10c-0.2-0.1-0.4,0-0.6,0.2l-3.6,4.5l-3.6-4.5
		c-0.2-0.2-0.5-0.3-0.7-0.1c-0.1,0.1-0.2,0.2-0.2,0.4v11c0,0.3,0.2,0.5,0.5,0.5s0.5-0.2,0.5-0.5v-9.6l3.1,3.9
		c0.2,0.2,0.5,0.3,0.7,0.1c0,0,0.1,0,0.1-0.1l3.1-3.9v9.6c0,0.3,0.2,0.5,0.5,0.5s0.5-0.2,0.5-0.5v-11C26,10.3,25.9,10.1,25.7,10z"></path>
</svg>
